<svg id="Layer_1" data-name="Layer 1" xmlns="http://www.w3.org/2000/svg" viewBox="0 0 500 500" width="500" height="500" class="illustration"><defs><style>.cls-1{fill:#e2e2e2;}.cls-2{fill:#f0457d;}.cls-3{fill:#db2868;}</style></defs><title>Discussion</title><ellipse class="cls-1" cx="250" cy="415.93" rx="111.35" ry="30.57"></ellipse><path class="cls-2" d="M250,53.5A145.18,145.18,0,0,0,144.12,298L235,407.69a19.47,19.47,0,0,0,30,0L355.88,298A145.18,145.18,0,0,0,250,53.5Zm0,152.63a47.27,47.27,0,1,1,47.27-47.26A47.27,47.27,0,0,1,250,206.13Z"></path><path class="cls-3" d="M279.23,57.24a145.18,145.18,0,0,1,27.46,221.53L217,387l17.81,21.49a19.44,19.44,0,0,0,29.95,0l90.91-109.67A145.2,145.2,0,0,0,279.23,57.24Z"></path></svg>